<?xml version="1.0" encoding="UTF-8" standalone="no"?>
<!DOCTYPE svg PUBLIC "-//W3C//DTD SVG 1.1//EN" "http://www.w3.org/Graphics/SVG/1.1/DTD/svg11.dtd">
<svg width="100%" height="100%" viewBox="0 0 44 44" version="1.1" xmlns="http://www.w3.org/2000/svg" xmlns:xlink="http://www.w3.org/1999/xlink" xml:space="preserve" xmlns:serif="http://www.serif.com/" style="fill-rule:evenodd;clip-rule:evenodd;stroke-linejoin:round;stroke-miterlimit:2;">
    <g transform="matrix(2.09524,0,0,2.09524,0,0)">
        <circle cx="10.5" cy="10.5" r="10.5" style="fill:white;"/>
    </g>
    <g transform="matrix(1.22222,0,0,1.22222,0,0)">
        <path d="M18,0C27.934,0 36,8.066 36,18C36,27.934 27.934,36 18,36C8.066,36 0,27.934 0,18C0,8.066 8.066,0 18,0ZM18,4.5C25.451,4.5 31.5,10.549 31.5,18C31.5,25.451 25.451,31.5 18,31.5C10.549,31.5 4.5,25.451 4.5,18C4.5,10.549 10.549,4.5 18,4.5Z"/>
    </g>
    <g transform="matrix(0.5,0,0,0.5,13,13)">
        <path d="M18,0C27.934,0 36,8.066 36,18C36,27.934 27.934,36 18,36L18,0Z"/>
    </g>
    <g transform="matrix(4,0,0,4,0,0)">
        <path d="M5.5,11C2.464,11 0,8.536 0,5.5C0,2.464 2.464,0 5.5,0L5.5,11Z"/>
        <clipPath id="_clip1">
            <path d="M5.5,11C2.464,11 0,8.536 0,5.5C0,2.464 2.464,0 5.5,0L5.5,11Z"/>
        </clipPath>
        <g clip-path="url(#_clip1)">
            <g transform="matrix(-0.125,0,0,0.125,7.75,3.25)">
                <path d="M18,0C27.934,0 36,8.066 36,18C36,27.934 27.934,36 18,36L18,0Z" style="fill:white;"/>
            </g>
        </g>
    </g>
</svg>
