<?xml version="1.0" encoding="UTF-8" standalone="no"?>
<!DOCTYPE svg PUBLIC "-//W3C//DTD SVG 1.1//EN" "http://www.w3.org/Graphics/SVG/1.1/DTD/svg11.dtd">
<svg width="100%" height="100%" viewBox="0 0 44 44" version="1.1" xmlns="http://www.w3.org/2000/svg" xmlns:xlink="http://www.w3.org/1999/xlink" xml:space="preserve" xmlns:serif="http://www.serif.com/" style="fill-rule:evenodd;clip-rule:evenodd;stroke-linecap:round;stroke-linejoin:round;stroke-miterlimit:1.5;">
    <g>
        <g transform="matrix(1,0,0,1,-16,-12)">
            <path d="M30,25.5L30,30.5C30,31.88 28.88,33 27.5,33L22.5,33C21.12,33 20,31.88 20,30.5L20,25.5C20,24.12 21.12,23 22.5,23L27.5,23C28.88,23 30,24.12 30,25.5Z" style="fill:none;stroke:black;stroke-width:2px;"/>
        </g>
        <g transform="matrix(1,0,0,1,-16,1)">
            <path d="M30,25.5L30,30.5C30,31.88 28.88,33 27.5,33L22.5,33C21.12,33 20,31.88 20,30.5L20,25.5C20,24.12 21.12,23 22.5,23L27.5,23C28.88,23 30,24.12 30,25.5Z" style="fill:none;stroke:black;stroke-width:2px;"/>
        </g>
        <g transform="matrix(1,0,0,1,-3,-12)">
            <path d="M30,25.5L30,30.5C30,31.88 28.88,33 27.5,33L22.5,33C21.12,33 20,31.88 20,30.5L20,25.5C20,24.12 21.12,23 22.5,23L27.5,23C28.88,23 30,24.12 30,25.5Z" style="fill:none;stroke:black;stroke-width:2px;"/>
        </g>
        <g transform="matrix(1,0,0,1,-3,1)">
            <path d="M30,25.5L30,30.5C30,31.88 28.88,33 27.5,33L22.5,33C21.12,33 20,31.88 20,30.5L20,25.5C20,24.12 21.12,23 22.5,23L27.5,23C28.88,23 30,24.12 30,25.5Z" style="fill:none;stroke:black;stroke-width:2px;"/>
        </g>
        <g transform="matrix(1,0,0,1,10,1)">
            <path d="M30,25.5L30,30.5C30,31.88 28.88,33 27.5,33L22.5,33C21.12,33 20,31.88 20,30.5L20,25.5C20,24.12 21.12,23 22.5,23L27.5,23C28.88,23 30,24.12 30,25.5Z" style="fill:none;stroke:black;stroke-width:2px;"/>
        </g>
        <g transform="matrix(1,0,0,1,10,-12)">
            <path d="M30,25.5L30,30.5C30,31.88 28.88,33 27.5,33L22.5,33C21.12,33 20,31.88 20,30.5L20,25.5C20,24.12 21.12,23 22.5,23L27.5,23C28.88,23 30,24.12 30,25.5Z" style="fill:none;stroke:black;stroke-width:2px;"/>
        </g>
        <g transform="matrix(1.02857,0,0,1,-16.5714,-12)">
            <path d="M55,18L20,18" style="fill:none;stroke:black;stroke-width:1.97px;"/>
        </g>
        <g transform="matrix(1.02857,0,0,1,-16.5714,21)">
            <path d="M55,18L20,18" style="fill:none;stroke:black;stroke-width:1.97px;"/>
        </g>
    </g>
</svg>
