<?xml version="1.0" encoding="UTF-8" standalone="no"?>
<!DOCTYPE svg PUBLIC "-//W3C//DTD SVG 1.1//EN" "http://www.w3.org/Graphics/SVG/1.1/DTD/svg11.dtd">
<svg width="100%" height="100%" viewBox="0 0 283 323" version="1.1" xmlns="http://www.w3.org/2000/svg" xmlns:xlink="http://www.w3.org/1999/xlink" xml:space="preserve" xmlns:serif="http://www.serif.com/" style="fill-rule:evenodd;clip-rule:evenodd;stroke-linecap:round;stroke-linejoin:round;stroke-miterlimit:1.5;">
    <g transform="matrix(3.43902,0,0,2.96842,-212.72,-173.226)">
        <path d="M62,88.17L62,77.7C62,74.554 64.205,72 66.92,72L79.81,72L79.81,64.252L79.921,64.252C80.465,60.991 82.944,58.525 85.917,58.525C88.889,58.525 91.368,60.991 91.912,64.252L92.023,64.252L92.023,72L114.704,72L114.704,64.926L114.731,64.926C115.025,61.337 117.636,58.525 120.81,58.525C123.984,58.525 126.596,61.337 126.889,64.926L126.917,64.926L126.917,72L139.08,72C141.795,72 144,74.554 144,77.7L144,88.17L62,88.17ZM144,95.582L144,161.3C144,164.446 141.795,167 139.08,167L66.92,167C64.205,167 62,164.446 62,161.3L62,95.582L144,95.582ZM96.32,112.426L88.057,112.426L88.057,122.533L96.32,122.533L96.32,112.426ZM74.698,125.734L66.434,125.734L66.434,135.84L74.698,135.84L74.698,125.734ZM139.566,125.734L131.302,125.734L131.302,135.84L139.566,135.84L139.566,125.734ZM128.754,125.734L120.491,125.734L120.491,135.84L128.754,135.84L128.754,125.734ZM117.943,125.734L109.68,125.734L109.68,135.84L117.943,135.84L117.943,125.734ZM107.132,125.734L98.868,125.734L98.868,135.84L107.132,135.84L107.132,125.734ZM85.509,125.734L77.246,125.734L77.246,135.84L85.509,135.84L85.509,125.734ZM96.32,125.734L88.057,125.734L88.057,135.84L96.32,135.84L96.32,125.734ZM74.698,139.041L66.434,139.041L66.434,149.148L74.698,149.148L74.698,139.041ZM139.566,139.041L131.302,139.041L131.302,149.148L139.566,149.148L139.566,139.041ZM128.754,139.041L120.491,139.041L120.491,149.148L128.754,149.148L128.754,139.041ZM117.943,139.041L109.68,139.041L109.68,149.148L117.943,149.148L117.943,139.041ZM107.132,99.119L98.868,99.119L98.868,109.225L107.132,109.225L107.132,99.119ZM117.943,99.119L109.68,99.119L109.68,109.225L117.943,109.225L117.943,99.119ZM128.754,99.119L120.491,99.119L120.491,109.225L128.754,109.225L128.754,99.119ZM139.566,99.119L131.302,99.119L131.302,109.225L139.566,109.225L139.566,99.119ZM74.698,99.119L66.434,99.119L66.434,109.225L74.698,109.225L74.698,99.119ZM85.509,99.119L77.246,99.119L77.246,109.225L85.509,109.225L85.509,99.119ZM139.566,112.426L131.302,112.426L131.302,122.533L139.566,122.533L139.566,112.426ZM128.754,112.426L120.491,112.426L120.491,122.533L128.754,122.533L128.754,112.426ZM117.943,112.426L109.68,112.426L109.68,122.533L117.943,122.533L117.943,112.426ZM107.132,112.426L98.868,112.426L98.868,122.533L107.132,122.533L107.132,112.426ZM85.509,112.426L77.246,112.426L77.246,122.533L85.509,122.533L85.509,112.426ZM107.132,139.041L98.868,139.041L98.868,149.148L107.132,149.148L107.132,139.041ZM85.509,139.041L77.246,139.041L77.246,149.148L85.509,149.148L85.509,139.041ZM96.32,139.041L88.057,139.041L88.057,149.148L96.32,149.148L96.32,139.041ZM74.698,152.349L66.434,152.349L66.434,162.455L74.698,162.455L74.698,152.349ZM139.566,152.349L131.302,152.349L131.302,162.455L139.566,162.455L139.566,152.349ZM128.754,152.349L120.491,152.349L120.491,162.455L128.754,162.455L128.754,152.349ZM117.943,152.349L109.68,152.349L109.68,162.455L117.943,162.455L117.943,152.349ZM107.132,152.349L98.868,152.349L98.868,162.455L107.132,162.455L107.132,152.349ZM85.509,152.349L77.246,152.349L77.246,162.455L85.509,162.455L85.509,152.349ZM96.32,152.349L88.057,152.349L88.057,162.455L96.32,162.455L96.32,152.349ZM96.32,99.119L88.057,99.119L88.057,109.225L96.32,109.225L96.32,99.119ZM74.698,112.426L66.434,112.426L66.434,122.533L74.698,122.533L74.698,112.426Z" style="stroke:rgb(235,235,235);stroke-width:0.31px;"/>
    </g>
</svg>
