<?xml version="1.0" encoding="UTF-8" standalone="no"?>
<!DOCTYPE svg PUBLIC "-//W3C//DTD SVG 1.1//EN" "http://www.w3.org/Graphics/SVG/1.1/DTD/svg11.dtd">
<svg width="100%" height="100%" viewBox="0 0 44 44" version="1.1" xmlns="http://www.w3.org/2000/svg" xmlns:xlink="http://www.w3.org/1999/xlink" xml:space="preserve" xmlns:serif="http://www.serif.com/" style="fill-rule:evenodd;clip-rule:evenodd;stroke-linecap:round;stroke-linejoin:round;stroke-miterlimit:1.5;">
    <g transform="matrix(1,0,0,1.13333,0,-5.2)">
        <g transform="matrix(1.02857,0,0,1,-16.5714,-3)">
            <path d="M55,18L20,18" style="fill:none;stroke:black;stroke-width:1.85px;"/>
        </g>
        <g transform="matrix(1.02857,0,0,1,-16.5714,-9)">
            <path d="M55,18L20,18" style="fill:none;stroke:black;stroke-width:1.85px;"/>
        </g>
        <g transform="matrix(1.02857,0,0,1,-16.5714,3)">
            <path d="M55,18L20,18" style="fill:none;stroke:black;stroke-width:1.85px;"/>
        </g>
        <g transform="matrix(1.02857,0,0,1,-16.5714,9)">
            <path d="M55,18L20,18" style="fill:none;stroke:black;stroke-width:1.85px;"/>
        </g>
        <g transform="matrix(1.02857,0,0,1,-16.5714,15)">
            <path d="M55,18L20,18" style="fill:none;stroke:black;stroke-width:1.85px;"/>
        </g>
        <g transform="matrix(1.02857,0,0,1,-16.5714,21)">
            <path d="M55,18L20,18" style="fill:none;stroke:black;stroke-width:1.85px;"/>
        </g>
    </g>
</svg>
