<?xml version="1.0" encoding="UTF-8" standalone="no"?>
<!DOCTYPE svg PUBLIC "-//W3C//DTD SVG 1.1//EN" "http://www.w3.org/Graphics/SVG/1.1/DTD/svg11.dtd">
<svg width="100%" height="100%" viewBox="0 0 65 65" version="1.1" xmlns="http://www.w3.org/2000/svg" xmlns:xlink="http://www.w3.org/1999/xlink" xml:space="preserve" xmlns:serif="http://www.serif.com/" style="fill-rule:evenodd;clip-rule:evenodd;stroke-linecap:round;stroke-linejoin:round;stroke-miterlimit:1.5;">
    <g transform="matrix(1.85714,0,0,2.09677,0,0)">
        <ellipse cx="17.5" cy="15.5" rx="17.5" ry="15.5" style="fill:rgb(235,235,235);"/>
    </g>
    <path d="M18,15L41,50L47,50L24,15L18,15Z" style="fill:white;stroke:black;stroke-width:1px;"/>
    <g transform="matrix(2.60625,0,0,2.87586,11.65,9.4931)">
        <path d="M12.6,0.75L15.054,0.75L9.694,6.892L16,15.25L11.063,15.25L7.196,10.18L2.771,15.25L0.316,15.25L6.049,8.68L0,0.75L5.063,0.75L8.558,5.383L12.601,0.75L12.6,0.75ZM11.74,13.778L13.1,13.778L4.323,2.145L2.865,2.145L11.74,13.778Z" style="fill-rule:nonzero;"/>
    </g>
</svg>
